<svg width="133" height="107" viewBox="0 0 133 107" fill="none" xmlns="http://www.w3.org/2000/svg">
<g clip-path="url(#clip0_8_3)">
<rect width="133" height="107" fill="white"/>
<path d="M1.6515 96L37.3635 6.39999H57.8435L93.2995 96H68.0835L52.7235 54.4C51.8702 52.096 51.1022 49.9627 50.4195 48C49.7368 46.0373 49.0968 44.1173 48.4995 42.24C47.9022 40.3627 47.3048 38.4427 46.7075 36.48C46.1955 34.5173 45.7262 32.384 45.2995 30.08L49.3955 29.952C48.8835 32.4267 48.3288 34.6453 47.7315 36.608C47.2195 38.5707 46.6648 40.448 46.0675 42.24C45.4702 44.032 44.7875 45.9093 44.0195 47.872C43.3368 49.8347 42.5688 52.0107 41.7155 54.4L26.3555 96H1.6515ZM19.0595 81.152L26.6115 63.232H68.0835L75.1235 81.152H19.0595Z" fill="black"/>
<path d="M73.2 96L37.488 6.39999H63.088L78.576 48.128C79.6 50.7733 80.4533 53.0773 81.136 55.04C81.8187 56.9173 82.416 58.7093 82.928 60.416C83.44 62.0373 83.952 63.7867 84.464 65.664C84.976 67.456 85.488 69.632 86 72.192H81.776C82.544 68.864 83.2693 66.048 83.952 63.744C84.6347 61.44 85.36 59.136 86.128 56.832C86.9813 54.528 88.048 51.6267 89.328 48.128L104.56 6.39999H129.52L93.552 96H73.2Z" fill="black"/>
<path d="M47.5 27L59.287 63.2766H97.4305L66.5717 85.6968L78.3587 121.973L47.5 99.5532L16.6413 121.973L28.4283 85.6968L-2.43047 63.2766H35.713L47.5 27Z" fill="white"/>
</g>
<defs>
<clipPath id="clip0_8_3">
<rect width="133" height="107" fill="white"/>
</clipPath>
</defs>
</svg>
